<svg version="1.1" xmlns="http://www.w3.org/2000/svg" xmlns:xlink="http://www.w3.org/1999/xlink" width="955.90869140625" height="866"><defs/><g><g><rect fill="#C0C0C0" stroke="none" x="383" y="23" width="322.533203125" height="251" transform="matrix(1 0 0 1 -6 -6)" fill-opacity="0.2"/></g><g><rect fill="#ffffff" stroke="none" x="376" y="16" width="322.533203125" height="251" transform="matrix(1 0 0 1 -6 -6)"/></g><g><path fill="none" stroke="#000000" paint-order="fill stroke markers" d=" M 370 10 L 692.533203125 10 L 692.533203125 261 L 370 261 L 370 10 Z Z" stroke-miterlimit="10" stroke-dasharray=""/></g><g><path fill="none" stroke="#000000" paint-order="fill stroke markers" d=" M 370 50 L 693.533203125 50" stroke-miterlimit="10" stroke-dasharray=""/></g><g><path fill="none" stroke="#000000" paint-order="fill stroke markers" d=" M 370 88 L 693.533203125 88" stroke-miterlimit="10" stroke-dasharray=""/></g><g><g><path fill="none" stroke="none"/><text fill="#000000" stroke="none" font-family="Arial" font-size="13px" font-style="italic" font-weight="bold" text-decoration="undefined" x="537.7666015625" y="29.5" text-anchor="middle" dominant-baseline="central" transform="matrix(1 0 0 1 -6 -6)">Account</text></g></g><g><g><path fill="none" stroke="none"/><text fill="#000000" stroke="none" font-family="Arial" font-size="13px" font-style="normal" font-weight="normal" text-decoration="undefined" x="537.7666015625" y="44.5" text-anchor="middle" dominant-baseline="central" transform="matrix(1 0 0 1 -6 -6)">(from JavaReverse)</text></g></g><g><g><path fill="none" stroke="none"/><text fill="#000000" stroke="none" font-family="Arial" font-size="13px" font-style="normal" font-weight="normal" text-decoration="undefined" x="381" y="67.5" text-anchor="start" dominant-baseline="central" transform="matrix(1 0 0 1 -6 -6)">-number: String</text></g></g><g><g><path fill="none" stroke="none"/><text fill="#000000" stroke="none" font-family="Arial" font-size="13px" font-style="normal" font-weight="normal" text-decoration="undefined" x="381" y="82.5" text-anchor="start" dominant-baseline="central" transform="matrix(1 0 0 1 -6 -6)">-funds: double</text></g></g><g><g><path fill="none" stroke="none"/><text fill="#000000" stroke="none" font-family="Arial" font-size="13px" font-style="normal" font-weight="normal" text-decoration="undefined" x="381" y="105.5" text-anchor="start" dominant-baseline="central" transform="matrix(1 0 0 1 -6 -6)">«constructor»+Account(number: String, funds: double)</text></g></g><g><g><path fill="none" stroke="none"/><text fill="#000000" stroke="none" font-family="Arial" font-size="13px" font-style="normal" font-weight="normal" text-decoration="undefined" x="381" y="120.5" text-anchor="start" dominant-baseline="central" transform="matrix(1 0 0 1 -6 -6)">+getNumber(): String</text></g></g><g><g><path fill="none" stroke="none"/><text fill="#000000" stroke="none" font-family="Arial" font-size="13px" font-style="normal" font-weight="normal" text-decoration="undefined" x="381" y="135.5" text-anchor="start" dominant-baseline="central" transform="matrix(1 0 0 1 -6 -6)">+setNumber(number: String): void</text></g></g><g><g><path fill="none" stroke="none"/><text fill="#000000" stroke="none" font-family="Arial" font-size="13px" font-style="normal" font-weight="normal" text-decoration="undefined" x="381" y="150.5" text-anchor="start" dominant-baseline="central" transform="matrix(1 0 0 1 -6 -6)">+getFunds(): double</text></g></g><g><g><path fill="none" stroke="none"/><text fill="#000000" stroke="none" font-family="Arial" font-size="13px" font-style="normal" font-weight="normal" text-decoration="undefined" x="381" y="165.5" text-anchor="start" dominant-baseline="central" transform="matrix(1 0 0 1 -6 -6)">+setFunds(funds: double): void</text></g></g><g><g><path fill="none" stroke="none"/><text fill="#000000" stroke="none" font-family="Arial" font-size="13px" font-style="normal" font-weight="normal" text-decoration="undefined" x="381" y="180.5" text-anchor="start" dominant-baseline="central" transform="matrix(1 0 0 1 -6 -6)">+equals(account: Account): boolean</text></g></g><g><g><path fill="none" stroke="none"/><text fill="#000000" stroke="none" font-family="Arial" font-size="13px" font-style="normal" font-weight="normal" text-decoration="undefined" x="381" y="195.5" text-anchor="start" dominant-baseline="central" transform="matrix(1 0 0 1 -6 -6)">+deposit(money: double): void</text></g></g><g><g><path fill="none" stroke="none"/><text fill="#000000" stroke="none" font-family="Arial" font-size="13px" font-style="normal" font-weight="normal" text-decoration="undefined" x="381" y="210.5" text-anchor="start" dominant-baseline="central" transform="matrix(1 0 0 1 -6 -6)">+withdraw(money: double): void</text></g></g><g><g><path fill="none" stroke="none"/><text fill="#000000" stroke="none" font-family="Arial" font-size="13px" font-style="normal" font-weight="normal" text-decoration="undefined" x="381" y="225.5" text-anchor="start" dominant-baseline="central" transform="matrix(1 0 0 1 -6 -6)">+hasFunds(): boolean</text></g></g><g><g><path fill="none" stroke="none"/><text fill="#000000" stroke="none" font-family="Arial" font-size="13px" font-style="italic" font-weight="normal" text-decoration="undefined" x="381" y="240.5" text-anchor="start" dominant-baseline="central" transform="matrix(1 0 0 1 -6 -6)">+calculateInterest(): double</text></g></g><g><g><path fill="none" stroke="none"/><text fill="#000000" stroke="none" font-family="Arial" font-size="13px" font-style="normal" font-weight="normal" text-decoration="undefined" x="381" y="255.5" text-anchor="start" dominant-baseline="central" transform="matrix(1 0 0 1 -6 -6)">+toString(): String</text></g></g><g><rect fill="#C0C0C0" stroke="none" x="639" y="375" width="318.90869140625" height="221" transform="matrix(1 0 0 1 -6 -6)" fill-opacity="0.2"/></g><g><rect fill="#ffffff" stroke="none" x="632" y="368" width="318.90869140625" height="221" transform="matrix(1 0 0 1 -6 -6)"/></g><g><path fill="none" stroke="#000000" paint-order="fill stroke markers" d=" M 626 362 L 944.90869140625 362 L 944.90869140625 583 L 626 583 L 626 362 Z Z" stroke-miterlimit="10" stroke-dasharray=""/></g><g><path fill="none" stroke="#000000" paint-order="fill stroke markers" d=" M 626 402 L 945.90869140625 402" stroke-miterlimit="10" stroke-dasharray=""/></g><g><path fill="none" stroke="#000000" paint-order="fill stroke markers" d=" M 626 440 L 945.90869140625 440" stroke-miterlimit="10" stroke-dasharray=""/></g><g><g><path fill="none" stroke="none"/><text fill="#000000" stroke="none" font-family="Arial" font-size="13px" font-style="normal" font-weight="bold" text-decoration="undefined" x="791.954345703125" y="381.5" text-anchor="middle" dominant-baseline="central" transform="matrix(1 0 0 1 -6 -6)">Current</text></g></g><g><g><path fill="none" stroke="none"/><text fill="#000000" stroke="none" font-family="Arial" font-size="13px" font-style="normal" font-weight="normal" text-decoration="undefined" x="791.954345703125" y="396.5" text-anchor="middle" dominant-baseline="central" transform="matrix(1 0 0 1 -6 -6)">(from JavaReverse)</text></g></g><g><g><path fill="none" stroke="none"/><text fill="#000000" stroke="none" font-family="Arial" font-size="13px" font-style="normal" font-weight="normal" text-decoration="undefined" x="637" y="419.5" text-anchor="start" dominant-baseline="central" transform="matrix(1 0 0 1 -6 -6)">-penaltyFee: double</text></g></g><g><g><path fill="none" stroke="none"/><text fill="#000000" stroke="none" font-family="Arial" font-size="13px" font-style="normal" font-weight="normal" text-decoration="undefined" x="637" y="434.5" text-anchor="start" dominant-baseline="central" transform="matrix(1 0 0 1 -6 -6)">-overdraftFee: double</text></g></g><g><g><path fill="none" stroke="none"/><text fill="#000000" stroke="none" font-family="Arial" font-size="13px" font-style="normal" font-weight="normal" text-decoration="undefined" x="637" y="457.5" text-anchor="start" dominant-baseline="central" transform="matrix(1 0 0 1 -6 -6)">«constructor»+Current(number: String, funds: double)</text></g></g><g><g><path fill="none" stroke="none"/><text fill="#000000" stroke="none" font-family="Arial" font-size="13px" font-style="normal" font-weight="normal" text-decoration="undefined" x="637" y="472.5" text-anchor="start" dominant-baseline="central" transform="matrix(1 0 0 1 -6 -6)">+getOverdraftFee(): double</text></g></g><g><g><path fill="none" stroke="none"/><text fill="#000000" stroke="none" font-family="Arial" font-size="13px" font-style="normal" font-weight="normal" text-decoration="undefined" x="637" y="487.5" text-anchor="start" dominant-baseline="central" transform="matrix(1 0 0 1 -6 -6)">+setOverdraftFee(overdraftFee: double): void</text></g></g><g><g><path fill="none" stroke="none"/><text fill="#000000" stroke="none" font-family="Arial" font-size="13px" font-style="normal" font-weight="normal" text-decoration="undefined" x="637" y="502.5" text-anchor="start" dominant-baseline="central" transform="matrix(1 0 0 1 -6 -6)">+getPenaltyFee(): double</text></g></g><g><g><path fill="none" stroke="none"/><text fill="#000000" stroke="none" font-family="Arial" font-size="13px" font-style="normal" font-weight="normal" text-decoration="undefined" x="637" y="517.5" text-anchor="start" dominant-baseline="central" transform="matrix(1 0 0 1 -6 -6)">+setPenaltyFee(): void</text></g></g><g><g><path fill="none" stroke="none"/><text fill="#000000" stroke="none" font-family="Arial" font-size="13px" font-style="normal" font-weight="normal" text-decoration="undefined" x="637" y="532.5" text-anchor="start" dominant-baseline="central" transform="matrix(1 0 0 1 -6 -6)">+withdraw(money: double): void</text></g></g><g><g><path fill="none" stroke="none"/><text fill="#000000" stroke="none" font-family="Arial" font-size="13px" font-style="normal" font-weight="normal" text-decoration="undefined" x="637" y="547.5" text-anchor="start" dominant-baseline="central" transform="matrix(1 0 0 1 -6 -6)">+calculateInterest(): double</text></g></g><g><g><path fill="none" stroke="none"/><text fill="#000000" stroke="none" font-family="Arial" font-size="13px" font-style="normal" font-weight="normal" text-decoration="undefined" x="637" y="562.5" text-anchor="start" dominant-baseline="central" transform="matrix(1 0 0 1 -6 -6)">+equals(account: Current): boolean</text></g></g><g><g><path fill="none" stroke="none"/><text fill="#000000" stroke="none" font-family="Arial" font-size="13px" font-style="normal" font-weight="normal" text-decoration="undefined" x="637" y="577.5" text-anchor="start" dominant-baseline="central" transform="matrix(1 0 0 1 -6 -6)">+toString(): String</text></g></g><g><path fill="none" stroke="#000000" paint-order="fill stroke markers" d=" M 701 361 L 627 262" stroke-miterlimit="10" stroke-dasharray=""/></g><g><path fill="#FFFFFF" stroke="none" paint-order="stroke fill markers" d=" M 645.9122761681447 273.2394755277916 L 627 262 L 632.4254893634861 283.3205080888495"/></g><g><path fill="none" stroke="#000000" paint-order="fill stroke markers" d=" M 645.9122761681447 273.2394755277916 L 627 262 L 632.4254893634861 283.3205080888495 L 645.9122761681447 273.2394755277916" stroke-miterlimit="10" stroke-dasharray=""/></g><g><rect fill="#C0C0C0" stroke="none" x="23" y="375" width="413.56494140625" height="176" transform="matrix(1 0 0 1 -6 -6)" fill-opacity="0.2"/></g><g><rect fill="#ffffff" stroke="none" x="16" y="368" width="413.56494140625" height="176" transform="matrix(1 0 0 1 -6 -6)"/></g><g><path fill="none" stroke="#000000" paint-order="fill stroke markers" d=" M 10 362 L 423.56494140625 362 L 423.56494140625 538 L 10 538 L 10 362 Z Z" stroke-miterlimit="10" stroke-dasharray=""/></g><g><path fill="none" stroke="#000000" paint-order="fill stroke markers" d=" M 10 402 L 424.56494140625 402" stroke-miterlimit="10" stroke-dasharray=""/></g><g><path fill="none" stroke="#000000" paint-order="fill stroke markers" d=" M 10 440 L 424.56494140625 440" stroke-miterlimit="10" stroke-dasharray=""/></g><g><g><path fill="none" stroke="none"/><text fill="#000000" stroke="none" font-family="Arial" font-size="13px" font-style="normal" font-weight="bold" text-decoration="undefined" x="223.282470703125" y="381.5" text-anchor="middle" dominant-baseline="central" transform="matrix(1 0 0 1 -6 -6)">Savings</text></g></g><g><g><path fill="none" stroke="none"/><text fill="#000000" stroke="none" font-family="Arial" font-size="13px" font-style="normal" font-weight="normal" text-decoration="undefined" x="223.282470703125" y="396.5" text-anchor="middle" dominant-baseline="central" transform="matrix(1 0 0 1 -6 -6)">(from JavaReverse)</text></g></g><g><g><path fill="none" stroke="none"/><text fill="#000000" stroke="none" font-family="Arial" font-size="13px" font-style="normal" font-weight="normal" text-decoration="undefined" x="21" y="419.5" text-anchor="start" dominant-baseline="central" transform="matrix(1 0 0 1 -6 -6)">-clientID: String</text></g></g><g><g><path fill="none" stroke="none"/><text fill="#000000" stroke="none" font-family="Arial" font-size="13px" font-style="normal" font-weight="normal" text-decoration="undefined" x="21" y="434.5" text-anchor="start" dominant-baseline="central" transform="matrix(1 0 0 1 -6 -6)">+INTEREST: double = 0.05 {readOnly}</text><path fill="none" stroke="#000000" paint-order="fill stroke markers" d=" M 15 435 L 236.85693359375 435" stroke-miterlimit="10" stroke-dasharray=""/></g></g><g><g><path fill="none" stroke="none"/><text fill="#000000" stroke="none" font-family="Arial" font-size="13px" font-style="normal" font-weight="normal" text-decoration="undefined" x="21" y="457.5" text-anchor="start" dominant-baseline="central" transform="matrix(1 0 0 1 -6 -6)">«constructor»+Savings(number: String, funds: double, clientID: String)</text></g></g><g><g><path fill="none" stroke="none"/><text fill="#000000" stroke="none" font-family="Arial" font-size="13px" font-style="normal" font-weight="normal" text-decoration="undefined" x="21" y="472.5" text-anchor="start" dominant-baseline="central" transform="matrix(1 0 0 1 -6 -6)">+getClientID(): String</text></g></g><g><g><path fill="none" stroke="none"/><text fill="#000000" stroke="none" font-family="Arial" font-size="13px" font-style="normal" font-weight="normal" text-decoration="undefined" x="21" y="487.5" text-anchor="start" dominant-baseline="central" transform="matrix(1 0 0 1 -6 -6)">+setClientID(clientID: String): void</text></g></g><g><g><path fill="none" stroke="none"/><text fill="#000000" stroke="none" font-family="Arial" font-size="13px" font-style="normal" font-weight="normal" text-decoration="undefined" x="21" y="502.5" text-anchor="start" dominant-baseline="central" transform="matrix(1 0 0 1 -6 -6)">+calculateInterest(): double</text></g></g><g><g><path fill="none" stroke="none"/><text fill="#000000" stroke="none" font-family="Arial" font-size="13px" font-style="normal" font-weight="normal" text-decoration="undefined" x="21" y="517.5" text-anchor="start" dominant-baseline="central" transform="matrix(1 0 0 1 -6 -6)">+equals(account: Savings): boolean</text></g></g><g><g><path fill="none" stroke="none"/><text fill="#000000" stroke="none" font-family="Arial" font-size="13px" font-style="normal" font-weight="normal" text-decoration="undefined" x="21" y="532.5" text-anchor="start" dominant-baseline="central" transform="matrix(1 0 0 1 -6 -6)">+toString(): String</text></g></g><g><path fill="none" stroke="#000000" paint-order="fill stroke markers" d=" M 305 361 L 404 262" stroke-miterlimit="10" stroke-dasharray=""/></g><g><path fill="#FFFFFF" stroke="none" paint-order="stroke fill markers" d=" M 395.580964487968 282.3253497152483 L 404 262 L 383.6746502847517 270.419035512032"/></g><g><path fill="none" stroke="#000000" paint-order="fill stroke markers" d=" M 395.580964487968 282.3253497152483 L 404 262 L 383.6746502847517 270.419035512032 L 395.580964487968 282.3253497152483" stroke-miterlimit="10" stroke-dasharray=""/></g><g><rect fill="#C0C0C0" stroke="none" x="23" y="663" width="616.58837890625" height="206" transform="matrix(1 0 0 1 -6 -6)" fill-opacity="0.2"/></g><g><rect fill="#ffffff" stroke="none" x="16" y="656" width="616.58837890625" height="206" transform="matrix(1 0 0 1 -6 -6)"/></g><g><path fill="none" stroke="#000000" paint-order="fill stroke markers" d=" M 10 650 L 626.58837890625 650 L 626.58837890625 856 L 10 856 L 10 650 Z Z" stroke-miterlimit="10" stroke-dasharray=""/></g><g><path fill="none" stroke="#000000" paint-order="fill stroke markers" d=" M 10 690 L 627.58837890625 690" stroke-miterlimit="10" stroke-dasharray=""/></g><g><path fill="none" stroke="#000000" paint-order="fill stroke markers" d=" M 10 728 L 627.58837890625 728" stroke-miterlimit="10" stroke-dasharray=""/></g><g><g><path fill="none" stroke="none"/><text fill="#000000" stroke="none" font-family="Arial" font-size="13px" font-style="normal" font-weight="bold" text-decoration="undefined" x="324.794189453125" y="669.5" text-anchor="middle" dominant-baseline="central" transform="matrix(1 0 0 1 -6 -6)">Term</text></g></g><g><g><path fill="none" stroke="none"/><text fill="#000000" stroke="none" font-family="Arial" font-size="13px" font-style="normal" font-weight="normal" text-decoration="undefined" x="324.794189453125" y="684.5" text-anchor="middle" dominant-baseline="central" transform="matrix(1 0 0 1 -6 -6)">(from JavaReverse)</text></g></g><g><g><path fill="none" stroke="none"/><text fill="#000000" stroke="none" font-family="Arial" font-size="13px" font-style="normal" font-weight="normal" text-decoration="undefined" x="21" y="707.5" text-anchor="start" dominant-baseline="central" transform="matrix(1 0 0 1 -6 -6)">-termMonths: int</text></g></g><g><g><path fill="none" stroke="none"/><text fill="#000000" stroke="none" font-family="Arial" font-size="13px" font-style="normal" font-weight="normal" text-decoration="undefined" x="21" y="722.5" text-anchor="start" dominant-baseline="central" transform="matrix(1 0 0 1 -6 -6)">-interestRate: double</text></g></g><g><g><path fill="none" stroke="none"/><text fill="#000000" stroke="none" font-family="Arial" font-size="13px" font-style="normal" font-weight="normal" text-decoration="undefined" x="21" y="745.5" text-anchor="start" dominant-baseline="central" transform="matrix(1 0 0 1 -6 -6)">«constructor»+Term(number: String, funds: double, clientID: String)</text></g></g><g><g><path fill="none" stroke="none"/><text fill="#000000" stroke="none" font-family="Arial" font-size="13px" font-style="normal" font-weight="normal" text-decoration="undefined" x="21" y="760.5" text-anchor="start" dominant-baseline="central" transform="matrix(1 0 0 1 -6 -6)">«constructor»+Term(number: String, funds: double, clientID: String, termMonths: int, interestRate: double)</text></g></g><g><g><path fill="none" stroke="none"/><text fill="#000000" stroke="none" font-family="Arial" font-size="13px" font-style="normal" font-weight="normal" text-decoration="undefined" x="21" y="775.5" text-anchor="start" dominant-baseline="central" transform="matrix(1 0 0 1 -6 -6)">+getTermMonths(): int</text></g></g><g><g><path fill="none" stroke="none"/><text fill="#000000" stroke="none" font-family="Arial" font-size="13px" font-style="normal" font-weight="normal" text-decoration="undefined" x="21" y="790.5" text-anchor="start" dominant-baseline="central" transform="matrix(1 0 0 1 -6 -6)">+setTermMonths(termMonths: int): void</text></g></g><g><g><path fill="none" stroke="none"/><text fill="#000000" stroke="none" font-family="Arial" font-size="13px" font-style="normal" font-weight="normal" text-decoration="undefined" x="21" y="805.5" text-anchor="start" dominant-baseline="central" transform="matrix(1 0 0 1 -6 -6)">+getInterestRate(): double</text></g></g><g><g><path fill="none" stroke="none"/><text fill="#000000" stroke="none" font-family="Arial" font-size="13px" font-style="normal" font-weight="normal" text-decoration="undefined" x="21" y="820.5" text-anchor="start" dominant-baseline="central" transform="matrix(1 0 0 1 -6 -6)">+setInterestRate(interestRate: double): void</text></g></g><g><g><path fill="none" stroke="none"/><text fill="#000000" stroke="none" font-family="Arial" font-size="13px" font-style="normal" font-weight="normal" text-decoration="undefined" x="21" y="835.5" text-anchor="start" dominant-baseline="central" transform="matrix(1 0 0 1 -6 -6)">+calculateInterest(): double</text></g></g><g><g><path fill="none" stroke="none"/><text fill="#000000" stroke="none" font-family="Arial" font-size="13px" font-style="normal" font-weight="normal" text-decoration="undefined" x="21" y="850.5" text-anchor="start" dominant-baseline="central" transform="matrix(1 0 0 1 -6 -6)">+toString(): String</text></g></g><g><path fill="none" stroke="#000000" paint-order="fill stroke markers" d=" M 283 649 L 246 539" stroke-miterlimit="10" stroke-dasharray=""/></g><g><path fill="#FFFFFF" stroke="none" paint-order="stroke fill markers" d=" M 260.45967070017525 555.5806490597472 L 246 539 L 244.5002418191968 560.9488205924399"/></g><g><path fill="none" stroke="#000000" paint-order="fill stroke markers" d=" M 260.45967070017525 555.5806490597472 L 246 539 L 244.5002418191968 560.9488205924399 L 260.45967070017525 555.5806490597472" stroke-miterlimit="10" stroke-dasharray=""/></g></g></svg>